<svg xmlns="http://www.w3.org/2000/svg" width="1536" height="1024" viewBox="0 0 1536 1024" fill="none">
<path d="M 284 522 L 283 661 L 279 670 L 289 688 L 296 693 L 313 698 L 340 697 L 355 701 L 429 696 L 478 702 L 541 696 L 552 692 L 558 684 L 558 663 L 549 682 L 534 689 L 514 688 L 478 693 L 464 688 L 438 689 L 424 683 L 414 688 L 350 692 L 339 688 L 310 689 L 297 685 L 286 673 L 284 665 Z" fill="#7AB7AE" fill-rule="evenodd" clip-rule="evenodd"/>
<path d="M 1253 656 L 1252 669 L 1247 679 L 1238 686 L 1229 689 L 1196 688 L 1185 692 L 1124 688 L 1114 683 L 1101 689 L 1071 688 L 1060 692 L 1039 692 L 996 687 L 984 678 L 978 667 L 976 676 L 984 690 L 997 699 L 1002 696 L 1045 702 L 1075 698 L 1104 699 L 1115 695 L 1134 700 L 1150 697 L 1174 702 L 1238 694 L 1255 678 Z" fill="#7AB7AE" fill-rule="evenodd" clip-rule="evenodd"/>
<path d="M 648 614 L 657 641 L 673 649 L 717 649 L 726 658 L 730 657 L 748 669 L 768 668 L 791 658 L 795 649 L 828 649 L 837 652 L 894 646 L 909 629 L 912 617 L 902 631 L 883 640 L 794 640 L 774 658 L 753 661 L 735 654 L 722 640 L 671 639 L 654 626 Z" fill="#7AB7AE" fill-rule="evenodd" clip-rule="evenodd"/>
<path d="M 356 271 L 355 430 L 363 431 L 365 271 Z" fill="#ADD7D3" fill-rule="evenodd" clip-rule="evenodd"/>
<path d="M 1049 271 L 1048 430 L 1057 431 L 1058 272 Z" fill="#ADD7D3" fill-rule="evenodd" clip-rule="evenodd"/>
<path d="M 1174 271 L 1172 430 L 1181 431 L 1182 278 L 1180 271 Z" fill="#ADD7D3" fill-rule="evenodd" clip-rule="evenodd"/>
<path d="M 847 569 L 877 569 L 889 573 L 909 591 L 914 610 L 911 627 L 904 636 L 908 637 L 919 608 L 911 585 L 905 584 L 902 576 L 896 576 L 895 569 L 907 566 L 917 559 L 930 545 L 931 539 L 935 538 L 934 533 L 938 529 L 943 538 L 970 546 L 974 560 L 973 670 L 976 672 L 976 538 L 952 537 L 936 519 L 929 521 L 925 544 L 903 564 L 888 565 L 870 558 L 857 568 Z" fill="#ADD7D3" fill-rule="evenodd" clip-rule="evenodd"/>
<path d="M 482 271 L 481 430 L 489 431 L 490 272 Z" fill="#ADD7D3" fill-rule="evenodd" clip-rule="evenodd"/>
<path d="M 356 525 L 354 652 L 363 653 L 365 526 Z" fill="#ADD7D3" fill-rule="evenodd" clip-rule="evenodd"/>
<path d="M 1172 525 L 1171 652 L 1180 653 L 1181 526 Z" fill="#ADD7D3" fill-rule="evenodd" clip-rule="evenodd"/>
<path d="M 1048 525 L 1047 652 L 1055 653 L 1056 526 Z" fill="#ADD7D3" fill-rule="evenodd" clip-rule="evenodd"/>
<path d="M 482 525 L 481 652 L 489 653 L 490 526 Z" fill="#ADD7D3" fill-rule="evenodd" clip-rule="evenodd"/>
<path d="M 582 536 L 561 538 L 559 543 L 561 670 L 560 589 L 564 543 L 579 543 L 582 566 L 586 574 L 595 581 L 609 586 L 648 585 L 644 611 L 647 627 L 654 639 L 648 623 L 647 599 L 659 577 L 651 574 L 631 581 L 597 578 L 587 568 Z" fill="#ADD7D3" fill-rule="evenodd" clip-rule="evenodd"/>
<path d="M 982 248 L 975 258 L 974 269 L 975 415 L 971 424 L 955 424 L 951 393 L 940 389 L 951 406 L 953 430 L 979 426 L 977 273 Z" fill="#ADD7D3" fill-rule="evenodd" clip-rule="evenodd"/>
<path d="M 1259 255 L 1262 447 L 1263 258 Z" fill="#ADD7D3" fill-rule="evenodd" clip-rule="evenodd"/>
<path d="M 554 248 L 560 262 L 560 426 L 584 429 L 584 404 L 592 392 L 584 394 L 579 424 L 566 424 L 562 417 L 562 265 L 559 249 Z" fill="#ADD7D3" fill-rule="evenodd" clip-rule="evenodd"/>
<path d="M 285 514 L 280 521 L 278 542 L 280 663 Z" fill="#ADD7D3" fill-rule="evenodd" clip-rule="evenodd"/>
<path d="M 840 344 L 850 359 L 850 387 L 938 389 L 935 384 L 858 384 L 853 381 L 856 378 L 853 373 L 855 359 L 851 360 L 846 345 Z" fill="#ADD7D3" fill-rule="evenodd" clip-rule="evenodd"/>
<path d="M 724 348 L 721 348 L 714 370 L 716 377 L 710 385 L 600 386 L 612 389 L 717 388 L 718 360 Z" fill="#ADD7D3" fill-rule="evenodd" clip-rule="evenodd"/>
<path d="M 1195 421 L 1196 432 L 1234 430 L 1233 421 Z" fill="#ADD7D3" fill-rule="evenodd" clip-rule="evenodd"/>
<path d="M 279 445 L 278 449 L 291 462 L 308 464 L 318 469 L 319 494 L 303 500 L 325 499 L 322 487 L 325 461 L 294 460 Z" fill="#ADD7D3" fill-rule="evenodd" clip-rule="evenodd"/>
<path d="M 305 423 L 306 432 L 342 430 L 341 421 Z" fill="#ADD7D3" fill-rule="evenodd" clip-rule="evenodd"/>
<path d="M 801 610 L 802 617 L 846 616 L 845 609 Z" fill="#ADD7D3" fill-rule="evenodd" clip-rule="evenodd"/>
<path d="M 697 545 L 698 556 L 726 555 L 725 544 Z" fill="#ADD7D3" fill-rule="evenodd" clip-rule="evenodd"/>
<path d="M 377 423 L 379 432 L 408 430 L 407 421 Z" fill="#ADD7D3" fill-rule="evenodd" clip-rule="evenodd"/>
<path d="M 503 423 L 504 432 L 534 430 L 532 421 Z" fill="#ADD7D3" fill-rule="evenodd" clip-rule="evenodd"/>
<path d="M 929 515 L 927 528 L 928 521 L 936 518 L 952 536 L 978 539 L 978 664 L 979 535 L 953 533 L 942 525 L 937 515 Z" fill="#7AB7AE" fill-rule="evenodd" clip-rule="evenodd"/>
<path d="M 1070 423 L 1070 432 L 1099 432 L 1098 421 Z" fill="#ADD7D3" fill-rule="evenodd" clip-rule="evenodd"/>
<path d="M 1004 423 L 1004 432 L 1035 430 L 1034 421 Z" fill="#ADD7D3" fill-rule="evenodd" clip-rule="evenodd"/>
<path d="M 1131 423 L 1132 432 L 1160 432 L 1160 423 L 1157 421 Z" fill="#ADD7D3" fill-rule="evenodd" clip-rule="evenodd"/>
<path d="M 1250 457 L 1232 462 L 1211 462 L 1214 490 L 1210 499 L 1239 501 L 1238 497 L 1219 497 L 1215 493 L 1217 467 L 1219 464 L 1241 464 Z" fill="#ADD7D3" fill-rule="evenodd" clip-rule="evenodd"/>
<path d="M 927 536 L 909 556 L 899 561 L 884 561 L 870 553 L 862 562 L 853 566 L 837 566 L 845 571 L 849 567 L 865 563 L 870 557 L 888 564 L 903 563 L 922 547 Z" fill="#7AB7AE" fill-rule="evenodd" clip-rule="evenodd"/>
<path d="M 441 424 L 442 432 L 469 432 L 469 423 L 466 421 Z" fill="#ADD7D3" fill-rule="evenodd" clip-rule="evenodd"/>
<path d="M 588 565 L 602 579 L 631 580 L 651 573 L 664 577 L 653 568 L 637 576 L 604 576 Z" fill="#7AB7AE" fill-rule="evenodd" clip-rule="evenodd"/>
<path d="M 278 383 L 278 439 L 281 447 L 294 459 L 325 460 L 326 464 L 331 457 L 299 457 L 282 443 L 279 434 Z" fill="#7AB7AE" fill-rule="evenodd" clip-rule="evenodd"/>
<path d="M 732 613 L 727 608 L 699 610 L 699 615 L 704 617 L 726 617 Z" fill="#ADD7D3" fill-rule="evenodd" clip-rule="evenodd"/>
<path d="M 868 480 L 870 491 L 891 489 L 890 480 L 872 479 L 872 486 L 869 488 Z" fill="#ADD7D3" fill-rule="evenodd" clip-rule="evenodd"/>
<path d="M 1261 441 L 1258 439 L 1255 446 L 1243 456 L 1206 459 L 1209 463 L 1212 460 L 1243 459 L 1254 453 Z" fill="#7AB7AE" fill-rule="evenodd" clip-rule="evenodd"/>
<path d="M 642 491 L 665 489 L 664 478 L 648 478 L 648 484 Z" fill="#ADD7D3" fill-rule="evenodd" clip-rule="evenodd"/>
<path d="M 585 531 L 558 535 L 557 631 L 559 539 L 582 535 L 585 538 L 586 556 Z" fill="#7AB7AE" fill-rule="evenodd" clip-rule="evenodd"/>
<path d="M 694 431 L 695 442 L 710 441 L 709 430 Z" fill="#ADD7D3" fill-rule="evenodd" clip-rule="evenodd"/>
<path d="M 440 479 L 415 480 L 414 487 L 430 488 Z" fill="#ADD7D3" fill-rule="evenodd" clip-rule="evenodd"/>
<path d="M 867 431 L 868 442 L 881 441 L 882 431 Z" fill="#ADD7D3" fill-rule="evenodd" clip-rule="evenodd"/>
<path d="M 694 412 L 695 422 L 710 422 L 709 411 Z" fill="#ADD7D3" fill-rule="evenodd" clip-rule="evenodd"/>
<path d="M 650 431 L 651 442 L 664 442 L 664 430 Z" fill="#ADD7D3" fill-rule="evenodd" clip-rule="evenodd"/>
<path d="M 889 431 L 890 442 L 903 441 L 903 430 Z" fill="#ADD7D3" fill-rule="evenodd" clip-rule="evenodd"/>
<path d="M 1258 263 L 1259 433 Z" fill="#7AB7AE" fill-rule="evenodd" clip-rule="evenodd"/>
<path d="M 672 430 L 673 442 L 687 441 L 686 430 Z" fill="#ADD7D3" fill-rule="evenodd" clip-rule="evenodd"/>
<path d="M 558 262 L 559 429 Z" fill="#7AB7AE" fill-rule="evenodd" clip-rule="evenodd"/>
<path d="M 629 431 L 630 442 L 643 441 L 642 430 Z" fill="#ADD7D3" fill-rule="evenodd" clip-rule="evenodd"/>
<path d="M 1193 661 L 1194 665 L 1227 663 L 1226 660 Z" fill="#ADD7D3" fill-rule="evenodd" clip-rule="evenodd"/>
<path d="M 911 431 L 912 442 L 925 441 L 924 430 Z" fill="#ADD7D3" fill-rule="evenodd" clip-rule="evenodd"/>
<path d="M 867 412 L 868 422 L 882 423 L 880 411 Z" fill="#ADD7D3" fill-rule="evenodd" clip-rule="evenodd"/>
<path d="M 1068 481 L 1069 488 L 1091 489 L 1079 479 Z" fill="#ADD7D3" fill-rule="evenodd" clip-rule="evenodd"/>
<path d="M 651 411 L 651 422 L 665 422 L 664 411 Z" fill="#ADD7D3" fill-rule="evenodd" clip-rule="evenodd"/>
<path d="M 607 431 L 610 442 L 622 441 L 621 430 Z" fill="#ADD7D3" fill-rule="evenodd" clip-rule="evenodd"/>
<path d="M 310 661 L 311 665 L 342 663 L 341 660 Z" fill="#ADD7D3" fill-rule="evenodd" clip-rule="evenodd"/>
<path d="M 889 412 L 890 422 L 903 422 L 902 411 Z" fill="#ADD7D3" fill-rule="evenodd" clip-rule="evenodd"/>
<path d="M 847 430 L 846 441 L 858 442 L 859 431 Z" fill="#ADD7D3" fill-rule="evenodd" clip-rule="evenodd"/>
<path d="M 1252 512 L 1255 655 L 1255 518 Z" fill="#ADD7D3" fill-rule="evenodd" clip-rule="evenodd"/>
<path d="M 673 412 L 673 422 L 687 421 L 687 411 Z" fill="#ADD7D3" fill-rule="evenodd" clip-rule="evenodd"/>
<path d="M 608 411 L 608 421 L 622 421 L 621 411 Z" fill="#ADD7D3" fill-rule="evenodd" clip-rule="evenodd"/>
<path d="M 1003 661 L 1008 665 L 1035 665 L 1033 660 Z" fill="#ADD7D3" fill-rule="evenodd" clip-rule="evenodd"/>
<path d="M 377 661 L 378 665 L 407 665 L 407 660 Z" fill="#ADD7D3" fill-rule="evenodd" clip-rule="evenodd"/>
<path d="M 832 491 L 859 489 L 853 484 L 845 487 L 833 484 Z" fill="#ADD7D3" fill-rule="evenodd" clip-rule="evenodd"/>
<path d="M 630 412 L 630 422 L 643 421 L 642 411 Z" fill="#ADD7D3" fill-rule="evenodd" clip-rule="evenodd"/>
<path d="M 912 412 L 913 422 L 925 421 L 924 411 Z" fill="#ADD7D3" fill-rule="evenodd" clip-rule="evenodd"/>
<path d="M 846 412 L 847 422 L 859 421 L 858 411 Z" fill="#ADD7D3" fill-rule="evenodd" clip-rule="evenodd"/>
<path d="M 502 663 L 527 665 L 532 661 L 503 660 Z" fill="#ADD7D3" fill-rule="evenodd" clip-rule="evenodd"/>
<path d="M 1130 661 L 1135 665 L 1159 664 L 1158 660 Z" fill="#ADD7D3" fill-rule="evenodd" clip-rule="evenodd"/>
<path d="M 804 408 L 796 409 L 797 413 L 803 414 L 803 421 L 800 422 L 801 442 L 805 441 Z" fill="#7AB7AE" fill-rule="evenodd" clip-rule="evenodd"/>
<path d="M 440 661 L 442 665 L 469 664 L 467 660 Z" fill="#ADD7D3" fill-rule="evenodd" clip-rule="evenodd"/>
<path d="M 1000 480 L 1001 489 L 1019 487 L 1013 480 Z" fill="#ADD7D3" fill-rule="evenodd" clip-rule="evenodd"/>
<path d="M 1069 661 L 1072 665 L 1097 663 L 1096 660 Z" fill="#ADD7D3" fill-rule="evenodd" clip-rule="evenodd"/>
<path d="M 828 430 L 828 441 L 838 442 L 839 431 Z" fill="#ADD7D3" fill-rule="evenodd" clip-rule="evenodd"/>
<path d="M 824 364 L 816 366 L 817 380 L 825 377 Z" fill="#ADD7D3" fill-rule="evenodd" clip-rule="evenodd"/>
<path d="M 829 411 L 827 421 L 839 422 L 839 412 Z" fill="#ADD7D3" fill-rule="evenodd" clip-rule="evenodd"/>
<path d="M 616 547 L 617 551 L 632 550 L 631 543 L 624 545 L 621 541 Z" fill="#ADD7D3" fill-rule="evenodd" clip-rule="evenodd"/>
<path d="M 521 482 L 527 488 L 536 487 L 535 479 Z" fill="#ADD7D3" fill-rule="evenodd" clip-rule="evenodd"/>
<path d="M 683 544 L 681 555 L 688 556 L 689 545 Z" fill="#ADD7D3" fill-rule="evenodd" clip-rule="evenodd"/>
<path d="M 284 250 L 277 257 L 275 269 L 276 304 L 276 273 L 279 257 Z" fill="#ADD7D3" fill-rule="evenodd" clip-rule="evenodd"/>
<path d="M 276 306 L 276 324 L 273 326 L 276 330 L 273 334 L 276 336 L 274 342 L 277 360 Z" fill="#ADD7D3" fill-rule="evenodd" clip-rule="evenodd"/>
<path d="M 278 272 L 279 355 Z" fill="#7AB7AE" fill-rule="evenodd" clip-rule="evenodd"/>
<path d="M 1096 480 L 1104 488 L 1118 488 L 1110 482 Z" fill="#ADD7D3" fill-rule="evenodd" clip-rule="evenodd"/>
<path d="M 1040 234 L 1062 237 L 1071 233 L 1062 232 L 1047 236 L 1046 232 Z" fill="#ADD7D3" fill-rule="evenodd" clip-rule="evenodd"/>
<path d="M 295 263 L 296 436 L 303 441 L 342 441 L 349 452 L 349 465 L 339 472 L 339 487 L 349 496 L 349 504 L 343 515 L 305 516 L 299 523 L 300 665 L 309 673 L 344 672 L 350 676 L 368 677 L 376 672 L 412 672 L 417 668 L 418 524 L 410 515 L 378 515 L 371 505 L 370 497 L 374 492 L 382 492 L 390 497 L 470 496 L 474 500 L 474 507 L 469 514 L 436 515 L 432 518 L 431 663 L 432 669 L 437 672 L 469 672 L 476 677 L 491 677 L 502 672 L 536 672 L 542 665 L 543 524 L 536 515 L 502 514 L 496 503 L 499 496 L 551 499 L 554 501 L 555 515 L 560 519 L 578 518 L 584 499 L 598 500 L 600 553 L 604 559 L 634 561 L 640 557 L 640 502 L 643 499 L 728 499 L 731 502 L 731 517 L 728 520 L 677 520 L 663 530 L 660 548 L 662 555 L 676 564 L 728 565 L 731 568 L 731 582 L 680 584 L 664 598 L 664 613 L 669 620 L 679 624 L 734 624 L 741 638 L 753 645 L 765 645 L 774 639 L 781 629 L 780 621 L 783 618 L 791 618 L 795 624 L 808 626 L 873 626 L 891 620 L 897 612 L 895 598 L 878 585 L 838 585 L 821 575 L 809 576 L 799 584 L 785 582 L 786 553 L 789 550 L 802 550 L 810 546 L 819 551 L 848 552 L 857 546 L 859 540 L 858 520 L 852 513 L 820 511 L 808 520 L 788 520 L 787 500 L 865 499 L 869 529 L 887 546 L 896 546 L 913 529 L 915 499 L 952 500 L 958 518 L 977 518 L 981 513 L 981 502 L 986 498 L 1037 496 L 1040 503 L 1033 515 L 1001 515 L 994 523 L 995 667 L 1002 672 L 1036 672 L 1048 677 L 1058 677 L 1067 672 L 1102 672 L 1107 664 L 1106 519 L 1102 515 L 1071 515 L 1065 507 L 1064 498 L 1148 496 L 1155 492 L 1164 495 L 1165 503 L 1159 514 L 1126 515 L 1120 522 L 1121 667 L 1125 672 L 1160 672 L 1171 677 L 1183 677 L 1192 672 L 1229 672 L 1236 668 L 1237 522 L 1232 516 L 1195 516 L 1186 503 L 1186 496 L 1197 489 L 1199 476 L 1197 470 L 1186 466 L 1186 455 L 1196 441 L 1234 442 L 1243 434 L 1244 263 L 1237 256 L 1197 255 L 1191 250 L 1164 250 L 1160 255 L 1131 255 L 1124 259 L 1123 436 L 1128 441 L 1158 441 L 1165 452 L 1163 468 L 1157 468 L 1143 458 L 1066 458 L 1064 455 L 1071 441 L 1104 441 L 1108 437 L 1109 269 L 1108 261 L 1099 254 L 1070 255 L 1067 250 L 1040 250 L 1031 255 L 1001 256 L 995 262 L 995 436 L 1001 441 L 1034 441 L 1040 452 L 1037 459 L 984 458 L 979 443 L 959 442 L 956 445 L 956 456 L 952 459 L 789 459 L 786 455 L 787 425 L 781 417 L 781 399 L 784 394 L 827 388 L 834 383 L 833 360 L 822 355 L 784 362 L 768 355 L 747 355 L 736 359 L 734 401 L 731 404 L 603 404 L 600 407 L 602 449 L 717 449 L 718 428 L 724 423 L 731 426 L 731 455 L 727 459 L 583 459 L 578 443 L 556 443 L 552 458 L 500 458 L 497 453 L 504 441 L 535 441 L 543 433 L 543 261 L 534 255 L 503 255 L 499 250 L 473 250 L 468 255 L 440 255 L 432 260 L 431 430 L 433 438 L 438 441 L 467 441 L 473 450 L 473 456 L 470 459 L 389 458 L 378 468 L 371 467 L 370 453 L 379 441 L 411 442 L 417 437 L 417 260 L 409 254 L 377 255 L 372 250 L 348 250 L 343 254 L 307 254 L 299 257 Z M 743 631 L 772 630 L 774 633 L 764 641 L 755 642 L 748 639 Z M 886 598 L 895 606 L 894 612 L 888 617 L 885 615 Z M 675 592 L 679 593 L 677 619 L 667 610 L 667 602 Z M 796 594 L 800 591 L 808 600 L 821 602 L 828 599 L 836 588 L 848 588 L 850 592 L 853 589 L 874 589 L 881 596 L 881 618 L 879 621 L 798 621 Z M 784 588 L 793 590 L 794 610 L 790 614 L 779 611 L 779 592 Z M 682 590 L 734 588 L 737 592 L 737 619 L 684 621 Z M 804 586 L 810 580 L 822 580 L 828 583 L 830 590 L 824 597 L 812 598 L 804 592 Z M 773 584 L 777 592 L 776 604 L 769 606 L 775 608 L 777 614 L 775 617 L 760 616 L 774 619 L 777 626 L 768 628 L 772 630 L 741 628 L 740 621 L 754 615 L 743 618 L 739 615 L 739 610 L 743 607 L 740 604 L 740 587 L 752 581 L 763 580 Z M 734 562 L 749 554 L 778 557 L 783 563 L 782 570 L 778 571 L 782 579 L 779 583 L 768 579 L 751 579 L 738 583 L 734 576 L 743 569 L 776 570 L 750 566 L 737 571 Z M 882 535 L 900 534 L 902 538 L 892 544 L 887 543 Z M 671 527 L 675 531 L 673 556 L 664 550 L 664 536 Z M 678 526 L 729 524 L 731 559 L 680 561 L 677 558 Z M 787 524 L 811 525 L 810 532 L 804 535 L 805 544 L 802 547 L 785 545 Z M 1169 521 L 1182 521 L 1185 524 L 1185 669 L 1182 672 L 1170 672 L 1167 669 Z M 1046 521 L 1060 523 L 1061 669 L 1058 672 L 1046 672 L 1042 668 L 1042 659 L 1045 657 Z M 480 521 L 491 521 L 494 524 L 494 669 L 491 672 L 476 670 L 476 659 L 479 657 L 477 524 Z M 353 521 L 369 523 L 369 669 L 366 672 L 353 672 L 350 668 Z M 1193 520 L 1228 520 L 1231 524 L 1232 665 L 1229 669 L 1190 667 L 1189 528 Z M 1129 520 L 1160 520 L 1163 523 L 1163 665 L 1160 669 L 1130 669 L 1126 666 L 1129 655 L 1126 652 L 1126 524 Z M 1069 520 L 1098 520 L 1102 523 L 1102 666 L 1098 669 L 1065 667 L 1065 523 Z M 1002 521 L 1035 520 L 1039 523 L 1039 666 L 1036 669 L 1002 669 L 999 663 L 999 528 Z M 504 520 L 533 520 L 536 523 L 536 665 L 533 669 L 501 669 L 498 666 L 498 524 Z M 440 520 L 470 520 L 473 524 L 473 666 L 469 669 L 439 669 L 436 665 L 437 523 Z M 376 520 L 409 520 L 412 526 L 412 666 L 409 669 L 374 667 L 373 523 Z M 310 520 L 343 520 L 346 524 L 346 663 L 343 669 L 306 667 L 306 523 Z M 814 518 L 820 515 L 851 517 L 855 529 L 854 544 L 851 547 L 816 546 L 813 540 Z M 735 518 L 750 511 L 778 515 L 782 519 L 783 554 L 779 557 L 766 552 L 751 552 L 736 556 Z M 1040 511 L 1062 509 L 1064 513 L 1060 519 L 1044 519 Z M 1164 512 L 1168 508 L 1185 508 L 1188 517 L 1167 519 Z M 474 516 L 478 508 L 492 508 L 497 513 L 490 519 L 477 519 Z M 348 511 L 369 508 L 371 517 L 352 519 L 348 516 Z M 606 500 L 636 502 L 636 553 L 633 556 L 608 556 L 605 553 Z M 871 501 L 908 500 L 908 529 L 901 533 L 877 531 L 871 521 Z M 959 500 L 962 497 L 974 497 L 977 510 L 962 513 Z M 562 497 L 577 499 L 573 513 L 560 511 Z M 1043 497 L 1057 494 L 1060 503 L 1046 505 Z M 478 496 L 488 494 L 493 497 L 491 505 L 480 505 L 477 502 Z M 1168 496 L 1180 493 L 1183 501 L 1180 505 L 1170 505 Z M 352 496 L 355 493 L 365 493 L 367 503 L 354 505 Z M 734 501 L 747 491 L 772 491 L 782 499 L 780 512 L 747 510 L 737 513 Z M 1157 476 L 1160 473 L 1191 473 L 1194 476 L 1194 486 L 1158 488 Z M 342 477 L 345 473 L 375 473 L 378 485 L 375 488 L 346 488 L 342 485 Z M 983 464 L 992 466 L 992 490 L 988 494 L 981 490 Z M 804 464 L 824 465 L 822 494 L 803 493 Z M 545 464 L 554 466 L 554 491 L 550 494 L 544 491 Z M 388 464 L 393 468 L 393 487 L 390 492 L 384 488 L 381 480 L 382 469 Z M 1145 463 L 1153 472 L 1153 484 L 1145 492 L 1142 488 L 1142 466 Z M 1129 463 L 1140 465 L 1138 492 L 1129 492 L 1126 488 L 1126 466 Z M 1064 465 L 1067 463 L 1075 468 L 1075 463 L 1122 463 L 1124 489 L 1121 492 L 1102 492 L 1096 486 L 1098 489 L 1095 493 L 1066 492 Z M 1045 463 L 1060 465 L 1060 485 L 1056 492 L 1043 489 L 1042 466 Z M 1039 465 L 1037 492 L 1029 490 L 1026 493 L 1006 493 L 996 490 L 998 464 L 1006 470 L 1006 464 Z M 961 463 L 977 465 L 977 492 L 974 495 L 961 495 L 958 492 L 958 481 L 961 478 L 974 478 L 958 476 L 958 466 Z M 826 465 L 950 463 L 953 466 L 953 492 L 950 495 L 899 495 L 896 492 L 867 495 L 864 491 L 859 495 L 829 495 L 826 492 Z M 715 465 L 799 463 L 801 494 L 796 498 L 787 498 L 781 492 L 783 487 L 768 487 L 766 484 L 759 488 L 738 487 L 740 491 L 735 495 L 722 497 L 715 492 Z M 670 466 L 673 463 L 711 463 L 713 491 L 710 494 L 672 494 Z M 668 464 L 668 492 L 665 495 L 640 494 L 638 466 Z M 582 467 L 586 463 L 634 463 L 636 492 L 632 495 L 584 494 Z M 561 463 L 574 463 L 577 466 L 577 477 L 569 478 L 577 481 L 577 492 L 574 495 L 561 495 L 558 492 L 558 466 Z M 498 465 L 530 464 L 531 468 L 538 464 L 540 490 L 500 492 L 497 489 Z M 479 463 L 492 463 L 495 467 L 492 491 L 482 492 L 476 487 L 476 466 Z M 395 466 L 406 463 L 471 464 L 473 490 L 439 492 L 437 488 L 433 492 L 396 492 Z M 1171 451 L 1183 453 L 1181 468 L 1169 466 Z M 1043 454 L 1046 451 L 1058 451 L 1060 458 L 1048 461 L 1043 458 Z M 478 452 L 492 451 L 494 458 L 491 461 L 480 461 L 477 458 Z M 354 451 L 364 451 L 367 454 L 363 468 L 353 467 Z M 959 449 L 974 446 L 977 449 L 976 460 L 961 460 Z M 558 448 L 572 446 L 576 450 L 576 458 L 560 460 Z M 735 425 L 750 417 L 776 419 L 783 428 L 783 455 L 778 459 L 736 458 Z M 604 410 L 712 408 L 714 443 L 711 446 L 606 446 Z M 718 409 L 732 407 L 734 416 L 731 419 L 720 419 Z M 738 405 L 748 399 L 765 398 L 774 401 L 778 405 L 775 417 L 740 417 Z M 830 363 L 830 379 L 825 383 L 785 390 L 779 386 L 779 368 L 784 365 L 821 360 Z M 741 362 L 775 363 L 777 383 L 770 384 L 777 390 L 774 399 L 765 396 L 752 396 L 742 400 L 739 398 L 738 390 L 742 385 L 738 382 L 738 367 Z M 1171 267 L 1184 267 L 1187 270 L 1185 434 L 1190 438 L 1187 448 L 1169 448 L 1166 445 L 1170 434 L 1168 269 Z M 1046 267 L 1059 267 L 1062 270 L 1061 435 L 1064 445 L 1060 448 L 1043 448 L 1040 444 L 1040 438 L 1046 436 Z M 492 267 L 493 435 L 497 441 L 494 448 L 477 448 L 474 438 L 478 436 L 478 269 Z M 353 267 L 366 267 L 369 270 L 367 434 L 372 437 L 370 448 L 351 448 L 348 445 L 348 438 L 353 434 L 350 428 L 350 272 Z M 1195 260 L 1234 260 L 1238 264 L 1238 433 L 1235 436 L 1195 436 L 1191 431 L 1191 265 Z M 1132 260 L 1160 260 L 1164 263 L 1164 415 L 1161 417 L 1164 432 L 1160 436 L 1130 436 L 1127 433 L 1127 266 Z M 1071 260 L 1100 260 L 1103 263 L 1103 433 L 1099 436 L 1069 436 L 1066 432 L 1067 263 Z M 1006 260 L 1034 260 L 1039 264 L 1039 432 L 1035 436 L 1003 436 L 1000 433 L 1000 267 Z M 503 260 L 534 260 L 537 263 L 538 432 L 534 436 L 499 434 L 499 264 Z M 441 260 L 465 260 L 472 263 L 473 430 L 470 436 L 440 436 L 437 432 L 437 263 Z M 377 260 L 411 262 L 412 415 L 409 418 L 412 433 L 408 436 L 377 436 L 373 431 L 373 264 Z M 307 260 L 345 262 L 346 427 L 343 436 L 304 436 L 301 432 L 301 264 Z M 1166 256 L 1187 254 L 1189 262 L 1170 265 Z M 475 259 L 477 254 L 497 256 L 495 264 L 478 264 Z M 348 256 L 368 254 L 371 259 L 369 264 L 350 264 Z M 1041 258 L 1045 253 L 1062 254 L 1064 262 L 1043 264 Z" fill="#091019" fill-rule="evenodd" clip-rule="evenodd"/>
<path d="M 819 408 L 819 447 L 822 449 L 931 449 L 934 445 L 934 407 L 930 404 L 826 403 Z M 823 411 L 826 408 L 927 408 L 929 444 L 825 446 Z" fill="#091019" fill-rule="evenodd" clip-rule="evenodd"/>
<path d="M 282 259 L 282 438 L 287 447 L 296 453 L 334 457 L 325 469 L 325 487 L 333 501 L 300 504 L 290 512 L 286 521 L 286 664 L 292 678 L 303 685 L 371 690 L 380 686 L 414 686 L 426 681 L 437 686 L 494 690 L 506 686 L 535 686 L 546 682 L 556 666 L 556 533 L 585 529 L 588 561 L 599 572 L 635 574 L 653 565 L 667 575 L 651 594 L 650 611 L 654 623 L 668 635 L 678 638 L 723 638 L 738 653 L 754 659 L 776 654 L 792 638 L 885 637 L 898 631 L 909 619 L 911 604 L 907 592 L 892 578 L 881 573 L 842 572 L 828 564 L 857 563 L 869 549 L 885 559 L 904 557 L 923 538 L 928 512 L 937 512 L 945 525 L 954 531 L 980 533 L 980 665 L 982 672 L 992 683 L 1059 690 L 1069 686 L 1103 686 L 1115 681 L 1126 686 L 1183 690 L 1195 686 L 1234 685 L 1249 672 L 1251 520 L 1246 510 L 1236 503 L 1203 500 L 1211 489 L 1211 470 L 1202 457 L 1244 453 L 1254 444 L 1257 436 L 1257 261 L 1251 249 L 1243 244 L 1202 242 L 1192 238 L 1162 238 L 1155 242 L 1127 242 L 1115 248 L 1104 242 L 1038 238 L 1030 242 L 1000 242 L 992 245 L 983 254 L 980 264 L 981 429 L 963 429 L 950 434 L 948 405 L 942 395 L 933 390 L 848 390 L 845 354 L 840 347 L 826 342 L 792 347 L 773 343 L 737 344 L 729 348 L 722 357 L 719 390 L 601 390 L 587 403 L 585 432 L 559 430 L 557 261 L 551 249 L 544 244 L 509 242 L 500 238 L 471 238 L 464 242 L 434 242 L 424 248 L 412 242 L 345 238 L 338 242 L 302 242 L 292 246 Z M 797 566 L 799 561 L 808 562 Z M 652 519 L 654 512 L 662 513 L 655 520 Z M 800 406 L 806 407 L 804 445 L 799 443 L 799 422 L 794 411 Z M 816 408 L 825 400 L 931 401 L 937 407 L 937 446 L 931 452 L 822 452 L 816 447 Z M 293 261 L 304 252 L 342 252 L 348 247 L 373 247 L 378 252 L 411 252 L 420 260 L 420 436 L 412 444 L 380 444 L 373 454 L 373 465 L 377 465 L 389 455 L 470 454 L 466 444 L 435 443 L 428 431 L 428 265 L 432 256 L 439 252 L 468 252 L 473 247 L 487 246 L 499 247 L 504 252 L 535 252 L 545 259 L 546 433 L 536 444 L 505 444 L 500 454 L 550 455 L 554 441 L 579 440 L 583 445 L 584 456 L 728 455 L 727 426 L 721 427 L 719 452 L 602 452 L 597 447 L 597 408 L 603 401 L 609 400 L 730 401 L 731 364 L 738 355 L 744 353 L 771 353 L 782 359 L 829 353 L 836 360 L 837 380 L 832 389 L 784 398 L 784 416 L 789 423 L 790 456 L 952 456 L 953 445 L 957 440 L 980 440 L 984 444 L 986 455 L 1036 456 L 1033 444 L 1001 444 L 992 435 L 992 262 L 1004 252 L 1034 252 L 1039 247 L 1067 247 L 1072 252 L 1101 252 L 1109 257 L 1112 264 L 1111 437 L 1104 444 L 1072 444 L 1067 454 L 1144 455 L 1161 465 L 1162 451 L 1157 444 L 1129 444 L 1120 436 L 1120 261 L 1131 252 L 1159 252 L 1165 247 L 1191 247 L 1197 252 L 1237 253 L 1246 261 L 1246 435 L 1236 444 L 1196 445 L 1190 454 L 1189 464 L 1200 470 L 1201 486 L 1189 497 L 1189 502 L 1196 513 L 1228 512 L 1234 514 L 1240 522 L 1240 666 L 1230 675 L 1193 675 L 1184 680 L 1169 680 L 1160 675 L 1126 675 L 1118 667 L 1118 521 L 1127 512 L 1157 512 L 1162 504 L 1161 495 L 1149 499 L 1066 500 L 1071 512 L 1101 512 L 1109 519 L 1110 665 L 1102 675 L 1067 675 L 1059 680 L 1041 679 L 1036 675 L 1001 675 L 991 664 L 991 522 L 1001 512 L 1032 512 L 1037 504 L 1036 499 L 987 501 L 984 503 L 984 513 L 977 521 L 956 520 L 952 516 L 950 502 L 917 502 L 915 531 L 896 549 L 882 546 L 866 529 L 863 502 L 790 502 L 789 516 L 807 516 L 819 508 L 847 508 L 854 511 L 861 520 L 861 543 L 850 554 L 818 554 L 811 550 L 803 553 L 790 552 L 789 581 L 799 581 L 807 574 L 821 572 L 840 582 L 877 582 L 899 599 L 900 613 L 894 621 L 878 628 L 797 628 L 790 621 L 784 621 L 781 635 L 772 644 L 761 649 L 744 644 L 733 627 L 678 627 L 669 623 L 661 612 L 662 596 L 672 585 L 680 581 L 727 581 L 728 569 L 687 569 L 667 563 L 658 553 L 660 530 L 677 517 L 727 517 L 727 502 L 644 502 L 643 557 L 636 563 L 607 563 L 597 554 L 596 502 L 585 503 L 585 513 L 580 520 L 558 521 L 552 515 L 550 502 L 537 499 L 500 499 L 499 503 L 505 512 L 535 512 L 545 522 L 544 668 L 535 675 L 503 675 L 495 680 L 477 680 L 468 675 L 436 675 L 428 664 L 428 521 L 436 512 L 466 512 L 471 507 L 471 500 L 388 499 L 376 495 L 373 502 L 379 512 L 410 512 L 420 520 L 420 667 L 412 675 L 377 675 L 368 680 L 353 680 L 343 675 L 305 674 L 297 665 L 297 522 L 305 513 L 340 512 L 343 509 L 346 497 L 336 487 L 336 472 L 346 464 L 346 453 L 341 444 L 302 444 L 293 436 Z" fill="#FAFCFB" fill-rule="evenodd" clip-rule="evenodd"/>
<path d="M 737 427 L 738 455 L 780 455 L 780 428 L 775 422 L 751 420 Z" fill="#FAFCFB" fill-rule="evenodd" clip-rule="evenodd"/>
<path d="M 738 519 L 742 526 L 738 528 L 741 546 L 737 553 L 748 550 L 779 553 L 777 518 L 750 514 Z" fill="#FAFCFB" fill-rule="evenodd" clip-rule="evenodd"/>
<path d="M 899 467 L 900 491 L 904 484 L 910 485 L 905 490 L 950 491 L 949 466 Z M 911 472 L 914 469 L 939 469 L 942 472 L 942 485 L 935 489 L 914 488 L 911 485 Z" fill="#FAFCFB" fill-rule="evenodd" clip-rule="evenodd"/>
<path d="M 585 467 L 586 491 L 633 490 L 632 466 Z M 593 472 L 596 469 L 620 469 L 623 472 L 623 485 L 620 488 L 595 488 Z" fill="#FAFCFB" fill-rule="evenodd" clip-rule="evenodd"/>
<path d="M 697 592 L 698 618 L 703 617 L 698 615 L 700 608 L 724 607 L 733 613 L 731 617 L 727 617 L 734 617 L 733 591 Z" fill="#FAFCFB" fill-rule="evenodd" clip-rule="evenodd"/>
<path d="M 718 467 L 718 490 L 723 494 L 734 492 L 727 492 L 723 487 L 723 473 L 726 469 L 787 469 L 791 473 L 791 488 L 785 492 L 788 495 L 798 493 L 797 466 Z" fill="#FAFCFB" fill-rule="evenodd" clip-rule="evenodd"/>
<path d="M 1077 466 L 1098 485 L 1095 480 L 1100 479 L 1121 488 L 1120 466 Z" fill="#FAFCFB" fill-rule="evenodd" clip-rule="evenodd"/>
<path d="M 737 508 L 770 507 L 778 510 L 779 500 L 771 494 L 752 493 L 741 497 Z" fill="#FAFCFB" fill-rule="evenodd" clip-rule="evenodd"/>
<path d="M 696 528 L 697 544 L 725 543 L 728 548 L 727 527 Z" fill="#FAFCFB" fill-rule="evenodd" clip-rule="evenodd"/>
<path d="M 412 488 L 415 479 L 439 477 L 441 480 L 438 484 L 456 466 L 413 466 Z" fill="#FAFCFB" fill-rule="evenodd" clip-rule="evenodd"/>
<path d="M 743 588 L 744 603 L 773 602 L 773 589 L 769 585 L 752 584 Z" fill="#FAFCFB" fill-rule="evenodd" clip-rule="evenodd"/>
<path d="M 848 593 L 837 591 L 824 604 L 808 603 L 799 595 L 799 617 L 802 608 L 845 608 L 847 618 Z" fill="#FAFCFB" fill-rule="evenodd" clip-rule="evenodd"/>
<path d="M 673 467 L 674 477 L 710 476 L 709 466 Z" fill="#FAFCFB" fill-rule="evenodd" clip-rule="evenodd"/>
<path d="M 807 466 L 806 491 L 821 491 L 821 467 Z M 815 478 L 817 480 L 809 490 L 807 482 Z" fill="#FAFCFB" fill-rule="evenodd" clip-rule="evenodd"/>
<path d="M 742 405 L 741 414 L 775 414 L 775 405 L 769 402 L 753 401 Z" fill="#FAFCFB" fill-rule="evenodd" clip-rule="evenodd"/>
<path d="M 500 488 L 504 488 L 528 466 L 501 466 Z" fill="#FAFCFB" fill-rule="evenodd" clip-rule="evenodd"/>
<path d="M 829 467 L 830 477 L 861 476 L 860 466 Z" fill="#FAFCFB" fill-rule="evenodd" clip-rule="evenodd"/>
<path d="M 868 466 L 869 487 L 870 479 L 887 478 L 891 480 L 892 491 L 893 467 Z" fill="#FAFCFB" fill-rule="evenodd" clip-rule="evenodd"/>
<path d="M 641 490 L 646 486 L 648 477 L 665 477 L 666 467 L 642 466 Z" fill="#FAFCFB" fill-rule="evenodd" clip-rule="evenodd"/>
<path d="M 470 467 L 465 466 L 444 486 L 452 481 L 454 488 L 458 486 L 462 489 L 465 486 L 469 489 Z" fill="#FAFCFB" fill-rule="evenodd" clip-rule="evenodd"/>
<path d="M 1009 466 L 1035 489 L 1035 481 L 1030 486 L 1024 480 L 1036 478 L 1035 466 Z" fill="#FAFCFB" fill-rule="evenodd" clip-rule="evenodd"/>
<path d="M 737 563 L 737 567 L 748 564 L 780 567 L 777 560 L 767 557 L 750 557 Z" fill="#FAFCFB" fill-rule="evenodd" clip-rule="evenodd"/>
<path d="M 633 512 L 608 512 L 608 522 L 632 523 Z" fill="#FAFCFB" fill-rule="evenodd" clip-rule="evenodd"/>
<path d="M 480 466 L 480 488 L 490 488 L 491 466 Z" fill="#FAFCFB" fill-rule="evenodd" clip-rule="evenodd"/>
<path d="M 1159 477 L 1160 484 L 1191 484 L 1190 476 Z" fill="#FAFCFB" fill-rule="evenodd" clip-rule="evenodd"/>
<path d="M 609 528 L 608 552 L 632 553 L 615 550 L 619 529 Z" fill="#FAFCFB" fill-rule="evenodd" clip-rule="evenodd"/>
<path d="M 345 477 L 345 484 L 375 484 L 374 476 Z" fill="#FAFCFB" fill-rule="evenodd" clip-rule="evenodd"/>
<path d="M 681 527 L 680 548 L 683 543 L 690 545 L 690 555 L 681 558 L 690 558 L 691 528 Z" fill="#FAFCFB" fill-rule="evenodd" clip-rule="evenodd"/>
<path d="M 855 592 L 854 612 L 857 608 L 864 608 L 866 618 L 866 593 Z" fill="#FAFCFB" fill-rule="evenodd" clip-rule="evenodd"/>
<path d="M 673 490 L 676 486 L 710 487 L 710 483 L 675 482 Z" fill="#FAFCFB" fill-rule="evenodd" clip-rule="evenodd"/>
<path d="M 1056 466 L 1045 467 L 1046 485 L 1049 478 L 1057 479 Z" fill="#FAFCFB" fill-rule="evenodd" clip-rule="evenodd"/>
<path d="M 789 591 L 782 593 L 783 611 L 790 610 Z" fill="#FAFCFB" fill-rule="evenodd" clip-rule="evenodd"/>
<path d="M 623 528 L 622 542 L 632 543 L 633 529 Z" fill="#FAFCFB" fill-rule="evenodd" clip-rule="evenodd"/>
<path d="M 742 611 L 742 614 L 774 614 L 773 610 L 760 607 Z" fill="#FAFCFB" fill-rule="evenodd" clip-rule="evenodd"/>
<path d="M 1130 466 L 1129 488 L 1134 478 L 1136 489 L 1137 467 Z" fill="#FAFCFB" fill-rule="evenodd" clip-rule="evenodd"/>
<path d="M 961 483 L 962 492 L 974 491 L 973 482 Z" fill="#FAFCFB" fill-rule="evenodd" clip-rule="evenodd"/>
<path d="M 961 467 L 962 476 L 974 475 L 973 466 Z" fill="#FAFCFB" fill-rule="evenodd" clip-rule="evenodd"/>
<path d="M 686 591 L 685 607 L 691 609 L 691 618 L 692 592 Z" fill="#FAFCFB" fill-rule="evenodd" clip-rule="evenodd"/>
<path d="M 351 439 L 352 445 L 369 445 L 368 438 Z" fill="#FAFCFB" fill-rule="evenodd" clip-rule="evenodd"/>
<path d="M 830 518 L 829 531 L 837 532 L 838 519 Z" fill="#FAFCFB" fill-rule="evenodd" clip-rule="evenodd"/>
<path d="M 1169 439 L 1170 445 L 1187 444 L 1186 438 Z" fill="#FAFCFB" fill-rule="evenodd" clip-rule="evenodd"/>
<path d="M 1043 439 L 1044 445 L 1061 444 L 1060 438 Z" fill="#FAFCFB" fill-rule="evenodd" clip-rule="evenodd"/>
<path d="M 537 467 L 511 489 L 518 484 L 520 488 L 526 488 L 520 482 L 528 478 L 536 479 Z" fill="#FAFCFB" fill-rule="evenodd" clip-rule="evenodd"/>
<path d="M 985 466 L 984 490 L 988 491 L 989 467 Z" fill="#FAFCFB" fill-rule="evenodd" clip-rule="evenodd"/>
<path d="M 561 467 L 562 476 L 574 475 L 573 466 Z" fill="#FAFCFB" fill-rule="evenodd" clip-rule="evenodd"/>
<path d="M 562 482 L 563 492 L 574 491 L 573 482 Z" fill="#FAFCFB" fill-rule="evenodd" clip-rule="evenodd"/>
<path d="M 477 439 L 478 445 L 494 444 L 493 438 Z" fill="#FAFCFB" fill-rule="evenodd" clip-rule="evenodd"/>
<path d="M 999 467 L 999 479 L 1013 479 L 1020 486 L 1018 489 L 1025 489 Z" fill="#FAFCFB" fill-rule="evenodd" clip-rule="evenodd"/>
<path d="M 562 500 L 563 510 L 574 509 L 573 500 Z" fill="#FAFCFB" fill-rule="evenodd" clip-rule="evenodd"/>
<path d="M 1067 467 L 1068 480 L 1079 478 L 1086 482 Z" fill="#FAFCFB" fill-rule="evenodd" clip-rule="evenodd"/>
<path d="M 1044 257 L 1045 262 L 1061 261 L 1060 256 Z" fill="#FAFCFB" fill-rule="evenodd" clip-rule="evenodd"/>
<path d="M 351 257 L 352 262 L 368 261 L 367 256 Z" fill="#FAFCFB" fill-rule="evenodd" clip-rule="evenodd"/>
<path d="M 399 466 L 397 477 L 405 479 L 406 467 Z" fill="#FAFCFB" fill-rule="evenodd" clip-rule="evenodd"/>
<path d="M 390 467 L 385 470 L 384 476 L 388 488 Z" fill="#FAFCFB" fill-rule="evenodd" clip-rule="evenodd"/>
<path d="M 608 503 L 609 506 L 633 505 L 632 502 Z" fill="#FAFCFB" fill-rule="evenodd" clip-rule="evenodd"/>
<path d="M 1146 466 L 1145 488 L 1148 488 L 1150 471 Z" fill="#FAFCFB" fill-rule="evenodd" clip-rule="evenodd"/>
<path d="M 829 483 L 829 491 L 833 483 L 843 486 L 853 483 L 861 490 L 860 482 Z" fill="#FAFCFB" fill-rule="evenodd" clip-rule="evenodd"/>
<path d="M 548 466 L 547 490 L 550 491 L 551 467 Z" fill="#FAFCFB" fill-rule="evenodd" clip-rule="evenodd"/>
<path d="M 1169 257 L 1171 262 L 1186 261 L 1185 256 Z" fill="#FAFCFB" fill-rule="evenodd" clip-rule="evenodd"/>
<path d="M 788 538 L 789 544 L 802 542 L 801 537 Z" fill="#FAFCFB" fill-rule="evenodd" clip-rule="evenodd"/>
<path d="M 478 257 L 479 262 L 494 261 L 493 256 Z" fill="#FAFCFB" fill-rule="evenodd" clip-rule="evenodd"/>
<path d="M 844 519 L 843 531 L 851 531 L 851 521 Z" fill="#FAFCFB" fill-rule="evenodd" clip-rule="evenodd"/>
<path d="M 962 450 L 963 457 L 974 457 L 973 449 Z" fill="#FAFCFB" fill-rule="evenodd" clip-rule="evenodd"/>
<path d="M 873 592 L 872 607 L 877 608 L 878 594 Z" fill="#FAFCFB" fill-rule="evenodd" clip-rule="evenodd"/>
<path d="M 1167 512 L 1168 516 L 1185 515 L 1184 511 Z" fill="#FAFCFB" fill-rule="evenodd" clip-rule="evenodd"/>
<path d="M 1043 512 L 1044 516 L 1061 515 L 1060 511 Z" fill="#FAFCFB" fill-rule="evenodd" clip-rule="evenodd"/>
<path d="M 351 512 L 352 516 L 369 515 L 368 511 Z" fill="#FAFCFB" fill-rule="evenodd" clip-rule="evenodd"/>
<path d="M 356 454 L 355 464 L 362 465 L 364 455 Z" fill="#FAFCFB" fill-rule="evenodd" clip-rule="evenodd"/>
<path d="M 1173 454 L 1172 464 L 1179 465 L 1180 454 Z" fill="#FAFCFB" fill-rule="evenodd" clip-rule="evenodd"/>
<path d="M 561 450 L 562 457 L 573 457 L 572 449 Z" fill="#FAFCFB" fill-rule="evenodd" clip-rule="evenodd"/>
<path d="M 477 512 L 478 516 L 494 515 L 493 511 Z" fill="#FAFCFB" fill-rule="evenodd" clip-rule="evenodd"/>
<path d="M 788 527 L 789 532 L 802 531 L 801 526 Z" fill="#FAFCFB" fill-rule="evenodd" clip-rule="evenodd"/>
<path d="M 502 598 L 501 653 L 532 654 L 532 631 L 520 633 L 520 648 L 517 653 L 515 633 L 502 630 L 504 627 L 515 626 L 515 599 Z" fill="#FDE160" fill-rule="evenodd" clip-rule="evenodd"/>
<path d="M 327 263 L 324 265 L 324 296 L 305 299 L 306 302 L 324 304 L 324 336 L 305 339 L 305 342 L 324 344 L 324 377 L 305 379 L 305 382 L 324 385 L 325 414 L 328 412 L 328 385 L 342 382 L 342 379 L 328 377 L 328 344 L 342 341 L 341 338 L 328 336 L 328 304 L 342 302 L 342 298 L 328 296 Z" fill="#F08334" fill-rule="evenodd" clip-rule="evenodd"/>
<path d="M 1004 302 L 1004 379 L 1017 377 L 1017 344 L 1004 342 L 1005 337 L 1017 336 L 1017 304 Z" fill="#FDE160" fill-rule="evenodd" clip-rule="evenodd"/>
<path d="M 1211 264 L 1211 296 L 1195 298 L 1195 302 L 1211 304 L 1211 336 L 1195 339 L 1196 342 L 1211 344 L 1211 377 L 1195 379 L 1194 382 L 1211 385 L 1210 414 L 1213 414 L 1214 385 L 1234 382 L 1233 379 L 1214 377 L 1214 344 L 1234 341 L 1233 338 L 1214 336 L 1214 304 L 1234 302 L 1234 299 L 1214 296 L 1214 265 Z" fill="#F08334" fill-rule="evenodd" clip-rule="evenodd"/>
<path d="M 1071 263 L 1070 297 L 1083 296 L 1083 265 L 1086 264 L 1087 296 L 1099 298 L 1100 264 Z" fill="#FDE160" fill-rule="evenodd" clip-rule="evenodd"/>
<path d="M 455 264 L 453 296 L 441 299 L 442 302 L 453 304 L 452 337 L 441 339 L 442 342 L 453 344 L 453 377 L 441 380 L 442 383 L 453 385 L 452 414 L 455 414 L 456 385 L 470 382 L 469 379 L 456 378 L 456 343 L 469 342 L 468 338 L 456 336 L 456 304 L 469 302 L 470 299 L 456 296 Z" fill="#F08334" fill-rule="evenodd" clip-rule="evenodd"/>
<path d="M 1213 524 L 1210 525 L 1210 552 L 1193 554 L 1195 559 L 1210 561 L 1210 590 L 1193 592 L 1192 596 L 1210 599 L 1210 626 L 1192 630 L 1210 633 L 1211 653 L 1213 633 L 1228 631 L 1228 627 L 1213 626 L 1213 599 L 1228 597 L 1228 592 L 1213 590 L 1213 561 L 1228 559 L 1228 554 L 1213 552 Z" fill="#F08334" fill-rule="evenodd" clip-rule="evenodd"/>
<path d="M 393 263 L 391 296 L 377 298 L 377 302 L 391 304 L 391 336 L 376 339 L 377 342 L 391 344 L 391 377 L 377 379 L 377 383 L 391 385 L 392 414 L 394 385 L 408 382 L 408 379 L 394 377 L 394 344 L 408 341 L 407 338 L 394 336 L 394 304 L 408 302 L 408 299 L 394 296 Z" fill="#F08334" fill-rule="evenodd" clip-rule="evenodd"/>
<path d="M 518 264 L 517 296 L 503 299 L 504 302 L 517 304 L 517 336 L 503 339 L 504 342 L 517 344 L 517 377 L 504 379 L 503 382 L 517 385 L 517 414 L 520 414 L 520 385 L 534 382 L 533 379 L 520 377 L 520 344 L 534 341 L 533 338 L 520 336 L 520 304 L 533 302 L 534 299 L 520 296 Z" fill="#F08334" fill-rule="evenodd" clip-rule="evenodd"/>
<path d="M 1020 264 L 1018 296 L 1004 299 L 1005 302 L 1018 304 L 1018 336 L 1005 338 L 1005 342 L 1018 344 L 1018 377 L 1004 380 L 1018 385 L 1018 414 L 1021 412 L 1021 385 L 1035 382 L 1034 379 L 1021 377 L 1021 344 L 1036 341 L 1036 338 L 1021 336 L 1021 304 L 1036 302 L 1036 298 L 1021 296 Z" fill="#F08334" fill-rule="evenodd" clip-rule="evenodd"/>
<path d="M 326 524 L 325 552 L 309 555 L 311 559 L 325 561 L 325 590 L 309 592 L 311 598 L 325 599 L 325 626 L 309 630 L 325 633 L 324 651 L 328 652 L 328 633 L 342 630 L 328 626 L 328 599 L 342 596 L 341 592 L 328 590 L 328 561 L 341 559 L 342 555 L 328 552 Z" fill="#F08334" fill-rule="evenodd" clip-rule="evenodd"/>
<path d="M 520 524 L 517 525 L 516 552 L 502 555 L 503 559 L 516 561 L 516 590 L 502 592 L 501 596 L 516 599 L 516 626 L 503 630 L 516 633 L 517 652 L 519 633 L 532 630 L 519 626 L 519 600 L 521 597 L 532 596 L 531 592 L 519 590 L 520 561 L 532 558 L 531 554 L 520 552 Z" fill="#F08334" fill-rule="evenodd" clip-rule="evenodd"/>
<path d="M 1018 524 L 1017 552 L 1003 555 L 1003 559 L 1017 561 L 1017 590 L 1003 593 L 1005 597 L 1017 599 L 1017 626 L 1002 630 L 1017 633 L 1019 653 L 1020 633 L 1035 631 L 1034 628 L 1020 626 L 1020 599 L 1035 596 L 1034 592 L 1020 591 L 1020 561 L 1036 558 L 1035 554 L 1020 552 Z" fill="#F08334" fill-rule="evenodd" clip-rule="evenodd"/>
<path d="M 1145 263 L 1144 296 L 1131 299 L 1132 302 L 1144 304 L 1144 336 L 1131 339 L 1132 342 L 1144 344 L 1144 377 L 1132 379 L 1131 382 L 1144 385 L 1144 414 L 1147 414 L 1147 384 L 1160 382 L 1160 379 L 1147 378 L 1147 344 L 1160 341 L 1159 338 L 1147 336 L 1147 304 L 1159 302 L 1160 299 L 1147 296 Z" fill="#F08334" fill-rule="evenodd" clip-rule="evenodd"/>
<path d="M 1084 265 L 1084 296 L 1071 299 L 1072 302 L 1083 303 L 1083 336 L 1071 339 L 1072 342 L 1083 344 L 1083 377 L 1072 379 L 1071 382 L 1083 385 L 1083 412 L 1086 414 L 1086 385 L 1100 383 L 1100 378 L 1086 377 L 1086 344 L 1100 343 L 1100 337 L 1086 336 L 1086 304 L 1100 302 L 1100 298 L 1086 296 L 1087 266 Z" fill="#F08334" fill-rule="evenodd" clip-rule="evenodd"/>
<path d="M 1144 524 L 1143 552 L 1130 555 L 1131 559 L 1143 561 L 1143 590 L 1130 593 L 1131 597 L 1143 599 L 1142 627 L 1130 630 L 1143 633 L 1145 653 L 1146 632 L 1159 630 L 1146 627 L 1146 599 L 1159 596 L 1158 592 L 1146 590 L 1146 561 L 1159 559 L 1159 555 L 1146 552 Z" fill="#F08334" fill-rule="evenodd" clip-rule="evenodd"/>
<path d="M 1084 524 L 1081 528 L 1081 552 L 1068 554 L 1068 558 L 1081 561 L 1081 590 L 1068 592 L 1067 596 L 1081 599 L 1081 626 L 1068 630 L 1081 633 L 1082 653 L 1084 633 L 1098 630 L 1084 626 L 1084 599 L 1098 596 L 1097 592 L 1084 590 L 1084 561 L 1098 558 L 1097 554 L 1084 552 Z" fill="#F08334" fill-rule="evenodd" clip-rule="evenodd"/>
<path d="M 455 524 L 453 552 L 440 554 L 440 559 L 453 561 L 453 590 L 440 592 L 440 598 L 453 599 L 453 626 L 440 628 L 440 631 L 453 633 L 454 653 L 456 633 L 470 630 L 456 626 L 455 599 L 469 597 L 469 592 L 456 590 L 456 561 L 469 559 L 470 555 L 456 552 Z" fill="#F08334" fill-rule="evenodd" clip-rule="evenodd"/>
<path d="M 393 524 L 392 552 L 377 555 L 378 559 L 392 561 L 392 590 L 377 592 L 378 597 L 392 599 L 392 626 L 377 630 L 392 633 L 394 653 L 395 633 L 408 630 L 395 627 L 395 598 L 408 596 L 407 592 L 395 590 L 395 560 L 407 559 L 408 555 L 395 553 Z" fill="#F08334" fill-rule="evenodd" clip-rule="evenodd"/>
<path d="M 1234 342 L 1215 344 L 1216 378 L 1235 378 Z" fill="#FDE160" fill-rule="evenodd" clip-rule="evenodd"/>
<path d="M 1214 263 L 1215 296 L 1234 298 L 1235 264 Z" fill="#FDE160" fill-rule="evenodd" clip-rule="evenodd"/>
<path d="M 1216 303 L 1215 336 L 1234 338 L 1235 304 Z" fill="#FDE160" fill-rule="evenodd" clip-rule="evenodd"/>
<path d="M 308 632 L 309 654 L 343 653 L 342 631 L 329 633 L 328 653 L 323 651 L 324 633 Z" fill="#FDE160" fill-rule="evenodd" clip-rule="evenodd"/>
<path d="M 305 343 L 304 377 L 322 378 L 323 344 Z" fill="#FDE160" fill-rule="evenodd" clip-rule="evenodd"/>
<path d="M 305 302 L 304 337 L 322 337 L 323 304 Z" fill="#FDE160" fill-rule="evenodd" clip-rule="evenodd"/>
<path d="M 306 263 L 304 297 L 322 297 L 324 264 Z" fill="#FDE160" fill-rule="evenodd" clip-rule="evenodd"/>
<path d="M 1234 383 L 1215 385 L 1214 414 L 1235 414 Z" fill="#FDE160" fill-rule="evenodd" clip-rule="evenodd"/>
<path d="M 305 383 L 304 413 L 323 415 L 323 385 Z" fill="#FDE160" fill-rule="evenodd" clip-rule="evenodd"/>
<path d="M 1195 342 L 1194 377 L 1209 378 L 1210 344 Z" fill="#FDE160" fill-rule="evenodd" clip-rule="evenodd"/>
<path d="M 1195 303 L 1194 336 L 1209 337 L 1210 304 Z" fill="#FDE160" fill-rule="evenodd" clip-rule="evenodd"/>
<path d="M 1195 263 L 1194 296 L 1209 297 L 1210 263 Z" fill="#FDE160" fill-rule="evenodd" clip-rule="evenodd"/>
<path d="M 1193 559 L 1192 591 L 1208 591 L 1209 561 Z" fill="#FDE160" fill-rule="evenodd" clip-rule="evenodd"/>
<path d="M 1193 523 L 1192 552 L 1208 553 L 1210 524 Z" fill="#FDE160" fill-rule="evenodd" clip-rule="evenodd"/>
<path d="M 309 559 L 309 591 L 323 591 L 324 561 Z" fill="#FDE160" fill-rule="evenodd" clip-rule="evenodd"/>
<path d="M 1193 598 L 1192 626 L 1208 627 L 1209 599 Z" fill="#FDE160" fill-rule="evenodd" clip-rule="evenodd"/>
<path d="M 1035 342 L 1022 344 L 1023 378 L 1036 378 Z" fill="#FDE160" fill-rule="evenodd" clip-rule="evenodd"/>
<path d="M 534 342 L 521 344 L 522 378 L 535 378 Z" fill="#FDE160" fill-rule="evenodd" clip-rule="evenodd"/>
<path d="M 503 342 L 502 378 L 515 378 L 516 344 Z" fill="#FDE160" fill-rule="evenodd" clip-rule="evenodd"/>
<path d="M 408 342 L 395 344 L 396 378 L 409 377 Z" fill="#FDE160" fill-rule="evenodd" clip-rule="evenodd"/>
<path d="M 342 342 L 329 344 L 330 378 L 343 377 Z" fill="#FDE160" fill-rule="evenodd" clip-rule="evenodd"/>
<path d="M 377 343 L 376 377 L 389 378 L 390 344 Z" fill="#FDE160" fill-rule="evenodd" clip-rule="evenodd"/>
<path d="M 1195 384 L 1194 414 L 1209 414 L 1210 385 Z" fill="#FDE160" fill-rule="evenodd" clip-rule="evenodd"/>
<path d="M 1035 302 L 1022 304 L 1023 337 L 1036 337 Z" fill="#FDE160" fill-rule="evenodd" clip-rule="evenodd"/>
<path d="M 534 302 L 521 304 L 522 337 L 535 337 Z" fill="#FDE160" fill-rule="evenodd" clip-rule="evenodd"/>
<path d="M 503 302 L 502 337 L 515 337 L 516 304 Z" fill="#FDE160" fill-rule="evenodd" clip-rule="evenodd"/>
<path d="M 1022 263 L 1022 296 L 1035 298 L 1036 264 Z" fill="#FDE160" fill-rule="evenodd" clip-rule="evenodd"/>
<path d="M 521 263 L 521 296 L 534 298 L 535 264 Z" fill="#FDE160" fill-rule="evenodd" clip-rule="evenodd"/>
<path d="M 504 263 L 502 297 L 515 297 L 517 263 Z" fill="#FDE160" fill-rule="evenodd" clip-rule="evenodd"/>
<path d="M 310 523 L 308 553 L 323 553 L 325 524 Z" fill="#FDE160" fill-rule="evenodd" clip-rule="evenodd"/>
<path d="M 396 303 L 395 336 L 408 338 L 409 304 Z" fill="#FDE160" fill-rule="evenodd" clip-rule="evenodd"/>
<path d="M 330 303 L 329 336 L 342 338 L 343 304 Z" fill="#FDE160" fill-rule="evenodd" clip-rule="evenodd"/>
<path d="M 1005 263 L 1003 297 L 1016 297 L 1018 264 Z" fill="#FDE160" fill-rule="evenodd" clip-rule="evenodd"/>
<path d="M 396 263 L 395 296 L 408 298 L 409 264 Z" fill="#FDE160" fill-rule="evenodd" clip-rule="evenodd"/>
<path d="M 377 263 L 376 296 L 389 297 L 391 264 Z" fill="#FDE160" fill-rule="evenodd" clip-rule="evenodd"/>
<path d="M 329 263 L 329 296 L 342 297 L 343 264 Z" fill="#FDE160" fill-rule="evenodd" clip-rule="evenodd"/>
<path d="M 377 303 L 376 336 L 389 337 L 390 304 Z" fill="#FDE160" fill-rule="evenodd" clip-rule="evenodd"/>
<path d="M 1022 560 L 1021 591 L 1035 592 L 1036 561 Z" fill="#FDE160" fill-rule="evenodd" clip-rule="evenodd"/>
<path d="M 377 559 L 376 591 L 390 591 L 391 561 Z" fill="#FDE160" fill-rule="evenodd" clip-rule="evenodd"/>
<path d="M 309 598 L 308 626 L 323 627 L 324 599 Z" fill="#FDE160" fill-rule="evenodd" clip-rule="evenodd"/>
<path d="M 1131 342 L 1130 378 L 1142 378 L 1143 344 Z" fill="#FDE160" fill-rule="evenodd" clip-rule="evenodd"/>
<path d="M 1160 342 L 1148 344 L 1148 378 L 1161 377 Z" fill="#FDE160" fill-rule="evenodd" clip-rule="evenodd"/>
<path d="M 457 343 L 457 378 L 469 378 L 470 344 Z" fill="#FDE160" fill-rule="evenodd" clip-rule="evenodd"/>
<path d="M 1088 343 L 1087 377 L 1099 378 L 1100 344 Z" fill="#FDE160" fill-rule="evenodd" clip-rule="evenodd"/>
<path d="M 377 523 L 376 553 L 390 553 L 392 524 Z" fill="#FDE160" fill-rule="evenodd" clip-rule="evenodd"/>
<path d="M 1021 523 L 1021 552 L 1035 553 L 1036 524 Z" fill="#FDE160" fill-rule="evenodd" clip-rule="evenodd"/>
<path d="M 1160 302 L 1148 304 L 1149 337 L 1161 337 Z" fill="#FDE160" fill-rule="evenodd" clip-rule="evenodd"/>
<path d="M 1131 302 L 1130 337 L 1142 337 L 1143 304 Z" fill="#FDE160" fill-rule="evenodd" clip-rule="evenodd"/>
<path d="M 1148 263 L 1148 296 L 1160 298 L 1161 264 Z" fill="#FDE160" fill-rule="evenodd" clip-rule="evenodd"/>
<path d="M 1099 302 L 1087 304 L 1088 337 L 1100 336 Z" fill="#FDE160" fill-rule="evenodd" clip-rule="evenodd"/>
<path d="M 457 263 L 457 296 L 469 297 L 470 264 Z" fill="#FDE160" fill-rule="evenodd" clip-rule="evenodd"/>
<path d="M 458 303 L 457 336 L 469 338 L 470 304 Z" fill="#FDE160" fill-rule="evenodd" clip-rule="evenodd"/>
<path d="M 1132 263 L 1130 297 L 1142 297 L 1143 263 Z" fill="#FDE160" fill-rule="evenodd" clip-rule="evenodd"/>
<path d="M 502 523 L 501 553 L 514 553 L 517 524 Z" fill="#FDE160" fill-rule="evenodd" clip-rule="evenodd"/>
<path d="M 1098 559 L 1085 561 L 1086 591 L 1099 593 Z" fill="#FDE160" fill-rule="evenodd" clip-rule="evenodd"/>
<path d="M 1035 597 L 1021 599 L 1022 627 L 1036 626 Z" fill="#FDE160" fill-rule="evenodd" clip-rule="evenodd"/>
<path d="M 1227 559 L 1214 561 L 1215 591 L 1228 591 Z" fill="#FDE160" fill-rule="evenodd" clip-rule="evenodd"/>
<path d="M 342 559 L 329 561 L 330 591 L 343 591 Z" fill="#FDE160" fill-rule="evenodd" clip-rule="evenodd"/>
<path d="M 377 597 L 376 626 L 390 627 L 391 599 Z" fill="#FDE160" fill-rule="evenodd" clip-rule="evenodd"/>
<path d="M 1003 560 L 1002 591 L 1015 591 L 1016 561 Z" fill="#FDE160" fill-rule="evenodd" clip-rule="evenodd"/>
<path d="M 502 559 L 501 591 L 514 591 L 515 561 Z" fill="#FDE160" fill-rule="evenodd" clip-rule="evenodd"/>
<path d="M 1003 381 L 1003 414 L 1017 414 L 1017 385 Z" fill="#FDE160" fill-rule="evenodd" clip-rule="evenodd"/>
<path d="M 1035 383 L 1022 385 L 1022 415 L 1036 414 Z" fill="#FDE160" fill-rule="evenodd" clip-rule="evenodd"/>
<path d="M 408 383 L 395 385 L 395 415 L 409 414 Z" fill="#FDE160" fill-rule="evenodd" clip-rule="evenodd"/>
<path d="M 377 384 L 376 414 L 391 414 L 390 385 Z" fill="#FDE160" fill-rule="evenodd" clip-rule="evenodd"/>
<path d="M 342 383 L 329 385 L 328 414 L 343 413 Z" fill="#FDE160" fill-rule="evenodd" clip-rule="evenodd"/>
<path d="M 329 523 L 329 552 L 342 554 L 343 524 Z" fill="#FDE160" fill-rule="evenodd" clip-rule="evenodd"/>
<path d="M 534 383 L 521 385 L 521 414 L 535 413 Z" fill="#FDE160" fill-rule="evenodd" clip-rule="evenodd"/>
<path d="M 1071 342 L 1070 378 L 1081 378 L 1082 344 Z" fill="#FDE160" fill-rule="evenodd" clip-rule="evenodd"/>
<path d="M 1004 523 L 1002 553 L 1015 553 L 1017 524 Z" fill="#FDE160" fill-rule="evenodd" clip-rule="evenodd"/>
<path d="M 503 383 L 502 414 L 516 414 L 516 385 Z" fill="#FDE160" fill-rule="evenodd" clip-rule="evenodd"/>
<path d="M 1215 523 L 1214 552 L 1227 554 L 1228 524 Z" fill="#FDE160" fill-rule="evenodd" clip-rule="evenodd"/>
<path d="M 1086 523 L 1085 552 L 1098 554 L 1099 524 Z" fill="#FDE160" fill-rule="evenodd" clip-rule="evenodd"/>
<path d="M 395 523 L 396 553 L 408 554 L 409 524 Z" fill="#FDE160" fill-rule="evenodd" clip-rule="evenodd"/>
<path d="M 1071 302 L 1070 337 L 1081 337 L 1082 303 Z" fill="#FDE160" fill-rule="evenodd" clip-rule="evenodd"/>
<path d="M 1099 597 L 1085 599 L 1086 627 L 1099 628 Z" fill="#FDE160" fill-rule="evenodd" clip-rule="evenodd"/>
<path d="M 1003 597 L 1002 626 L 1015 627 L 1016 599 Z" fill="#FDE160" fill-rule="evenodd" clip-rule="evenodd"/>
<path d="M 1227 597 L 1214 599 L 1215 627 L 1228 626 Z" fill="#FDE160" fill-rule="evenodd" clip-rule="evenodd"/>
<path d="M 342 597 L 329 599 L 330 627 L 343 626 Z" fill="#FDE160" fill-rule="evenodd" clip-rule="evenodd"/>
<path d="M 408 559 L 396 560 L 397 591 L 409 591 Z" fill="#FDE160" fill-rule="evenodd" clip-rule="evenodd"/>
<path d="M 1130 559 L 1129 591 L 1141 591 L 1142 561 Z" fill="#FDE160" fill-rule="evenodd" clip-rule="evenodd"/>
<path d="M 1068 559 L 1067 591 L 1079 591 L 1080 561 Z" fill="#FDE160" fill-rule="evenodd" clip-rule="evenodd"/>
<path d="M 441 263 L 440 297 L 451 297 L 453 264 Z" fill="#FDE160" fill-rule="evenodd" clip-rule="evenodd"/>
<path d="M 1148 560 L 1147 590 L 1159 592 L 1160 561 Z" fill="#FDE160" fill-rule="evenodd" clip-rule="evenodd"/>
<path d="M 458 560 L 457 590 L 470 591 L 470 561 Z" fill="#FDE160" fill-rule="evenodd" clip-rule="evenodd"/>
<path d="M 458 384 L 455 413 L 469 415 L 470 385 Z" fill="#FDE160" fill-rule="evenodd" clip-rule="evenodd"/>
<path d="M 1160 383 L 1148 384 L 1148 414 L 1161 414 Z" fill="#FDE160" fill-rule="evenodd" clip-rule="evenodd"/>
<path d="M 1131 383 L 1130 414 L 1143 414 L 1143 385 Z" fill="#FDE160" fill-rule="evenodd" clip-rule="evenodd"/>
<path d="M 1130 523 L 1129 553 L 1141 553 L 1143 523 Z" fill="#FDE160" fill-rule="evenodd" clip-rule="evenodd"/>
<path d="M 1099 383 L 1087 385 L 1087 414 L 1100 414 Z" fill="#FDE160" fill-rule="evenodd" clip-rule="evenodd"/>
<path d="M 1147 523 L 1147 552 L 1159 554 L 1160 524 Z" fill="#FDE160" fill-rule="evenodd" clip-rule="evenodd"/>
<path d="M 457 523 L 457 552 L 469 553 L 470 524 Z" fill="#FDE160" fill-rule="evenodd" clip-rule="evenodd"/>
<path d="M 441 342 L 440 378 L 451 378 L 452 344 Z" fill="#FDE160" fill-rule="evenodd" clip-rule="evenodd"/>
<path d="M 1069 523 L 1067 552 L 1079 553 L 1081 523 Z" fill="#FDE160" fill-rule="evenodd" clip-rule="evenodd"/>
<path d="M 532 559 L 521 561 L 521 591 L 533 591 Z" fill="#FDE160" fill-rule="evenodd" clip-rule="evenodd"/>
<path d="M 441 302 L 440 337 L 451 337 L 452 304 Z" fill="#FDE160" fill-rule="evenodd" clip-rule="evenodd"/>
<path d="M 1159 597 L 1147 599 L 1147 627 L 1160 627 Z" fill="#FDE160" fill-rule="evenodd" clip-rule="evenodd"/>
<path d="M 408 597 L 396 598 L 396 627 L 409 626 Z" fill="#FDE160" fill-rule="evenodd" clip-rule="evenodd"/>
<path d="M 874 503 L 875 520 L 895 520 L 893 502 Z" fill="#FDE160" fill-rule="evenodd" clip-rule="evenodd"/>
<path d="M 457 598 L 457 626 L 469 627 L 470 599 Z" fill="#FDE160" fill-rule="evenodd" clip-rule="evenodd"/>
<path d="M 532 597 L 520 600 L 521 627 L 533 626 Z" fill="#FDE160" fill-rule="evenodd" clip-rule="evenodd"/>
<path d="M 1068 598 L 1067 626 L 1079 627 L 1080 599 Z" fill="#FDE160" fill-rule="evenodd" clip-rule="evenodd"/>
<path d="M 1193 632 L 1192 653 L 1209 654 L 1209 633 Z" fill="#FDE160" fill-rule="evenodd" clip-rule="evenodd"/>
<path d="M 441 559 L 440 591 L 451 591 L 452 561 Z" fill="#FDE160" fill-rule="evenodd" clip-rule="evenodd"/>
<path d="M 440 523 L 440 553 L 451 553 L 453 524 Z" fill="#FDE160" fill-rule="evenodd" clip-rule="evenodd"/>
<path d="M 1071 383 L 1070 413 L 1082 415 L 1082 385 Z" fill="#FDE160" fill-rule="evenodd" clip-rule="evenodd"/>
<path d="M 522 523 L 521 552 L 532 554 L 533 524 Z" fill="#FDE160" fill-rule="evenodd" clip-rule="evenodd"/>
<path d="M 1130 597 L 1129 626 L 1141 627 L 1142 599 Z" fill="#FDE160" fill-rule="evenodd" clip-rule="evenodd"/>
<path d="M 441 598 L 440 627 L 451 627 L 452 599 Z" fill="#FDE160" fill-rule="evenodd" clip-rule="evenodd"/>
<path d="M 1022 632 L 1020 654 L 1035 654 L 1036 633 Z" fill="#FDE160" fill-rule="evenodd" clip-rule="evenodd"/>
<path d="M 377 631 L 376 653 L 391 654 L 391 633 Z" fill="#FDE160" fill-rule="evenodd" clip-rule="evenodd"/>
<path d="M 441 383 L 441 414 L 451 414 L 452 385 Z" fill="#FDE160" fill-rule="evenodd" clip-rule="evenodd"/>
<path d="M 1227 631 L 1214 633 L 1213 654 L 1228 653 Z" fill="#FDE160" fill-rule="evenodd" clip-rule="evenodd"/>
<path d="M 1098 631 L 1085 633 L 1085 654 L 1099 653 Z" fill="#FDE160" fill-rule="evenodd" clip-rule="evenodd"/>
<path d="M 1003 632 L 1002 653 L 1016 654 L 1016 633 Z" fill="#FDE160" fill-rule="evenodd" clip-rule="evenodd"/>
<path d="M 408 631 L 396 633 L 395 654 L 409 653 Z" fill="#FDE160" fill-rule="evenodd" clip-rule="evenodd"/>
<path d="M 458 632 L 455 654 L 469 654 L 470 633 Z" fill="#FDE160" fill-rule="evenodd" clip-rule="evenodd"/>
<path d="M 1159 631 L 1147 632 L 1146 654 L 1160 653 Z" fill="#FDE160" fill-rule="evenodd" clip-rule="evenodd"/>
<path d="M 1068 631 L 1067 653 L 1080 654 L 1080 633 Z" fill="#FDE160" fill-rule="evenodd" clip-rule="evenodd"/>
<path d="M 1130 631 L 1129 653 L 1142 654 L 1142 633 Z" fill="#FDE160" fill-rule="evenodd" clip-rule="evenodd"/>
<path d="M 441 631 L 440 654 L 451 654 L 452 633 Z" fill="#FDE160" fill-rule="evenodd" clip-rule="evenodd"/>
<path d="M 756 363 L 741 366 L 742 383 L 756 379 Z" fill="#FDE160" fill-rule="evenodd" clip-rule="evenodd"/>
<path d="M 761 363 L 759 379 L 773 382 L 774 366 L 771 363 Z" fill="#FDE160" fill-rule="evenodd" clip-rule="evenodd"/>
<path d="M 741 390 L 741 396 L 752 393 L 774 395 L 774 390 L 765 386 Z" fill="#FDE160" fill-rule="evenodd" clip-rule="evenodd"/>
<path d="M 737 576 L 739 580 L 752 576 L 766 576 L 777 581 L 779 579 L 778 574 L 769 571 L 747 571 Z" fill="#FDE160" fill-rule="evenodd" clip-rule="evenodd"/>
<path d="M 742 623 L 743 626 L 774 625 L 773 621 L 761 618 Z" fill="#FDE160" fill-rule="evenodd" clip-rule="evenodd"/>
<path d="M 917 475 L 918 483 L 936 482 L 935 474 Z" fill="#FDE160" fill-rule="evenodd" clip-rule="evenodd"/>
<path d="M 599 475 L 600 483 L 617 482 L 616 474 Z" fill="#FDE160" fill-rule="evenodd" clip-rule="evenodd"/>
<path d="M 899 502 L 898 521 L 905 521 L 906 503 Z" fill="#FDE160" fill-rule="evenodd" clip-rule="evenodd"/>
<path d="M 675 595 L 670 602 L 670 610 L 677 616 Z" fill="#FDE160" fill-rule="evenodd" clip-rule="evenodd"/>
<path d="M 815 582 L 806 586 L 806 590 L 812 595 L 816 595 Z" fill="#FDE160" fill-rule="evenodd" clip-rule="evenodd"/>
<path d="M 605 410 L 605 444 L 608 427 L 623 427 L 625 444 L 628 444 L 629 427 L 644 427 L 647 444 L 649 427 L 665 427 L 666 444 L 671 444 L 672 427 L 689 429 L 688 444 L 692 444 L 693 427 L 710 427 L 713 443 L 712 409 L 710 425 L 693 425 L 692 409 L 689 409 L 687 425 L 672 425 L 671 409 L 667 409 L 666 425 L 649 425 L 647 409 L 644 425 L 628 425 L 626 409 L 623 425 L 608 425 Z" fill="#010103" fill-rule="evenodd" clip-rule="evenodd"/>
<path d="M 824 444 L 827 427 L 841 428 L 840 444 L 843 444 L 845 426 L 862 429 L 861 444 L 866 444 L 866 427 L 882 427 L 885 430 L 885 445 L 885 430 L 888 427 L 904 427 L 905 444 L 910 444 L 909 429 L 927 428 L 928 425 L 910 425 L 910 409 L 906 410 L 905 425 L 886 424 L 887 409 L 884 424 L 866 425 L 865 408 L 861 409 L 861 425 L 845 426 L 844 409 L 840 409 L 839 425 L 826 425 L 825 410 Z" fill="#010103" fill-rule="evenodd" clip-rule="evenodd"/>
<path d="M 594 473 L 594 484 L 597 487 L 620 486 L 620 471 L 597 470 Z M 596 473 L 619 473 L 620 484 L 597 485 Z" fill="#010103" fill-rule="evenodd" clip-rule="evenodd"/>
<path d="M 914 472 L 914 486 L 940 485 L 938 470 Z M 914 474 L 935 473 L 937 484 L 919 486 L 914 483 Z" fill="#010103" fill-rule="evenodd" clip-rule="evenodd"/>
<path d="M 1234 261 L 1194 263 L 1236 264 L 1236 416 L 1194 417 L 1192 431 L 1195 419 L 1236 420 L 1237 264 Z" fill="#010103" fill-rule="evenodd" clip-rule="evenodd"/>
<path d="M 1069 521 L 1100 523 L 1100 655 L 1065 654 L 1067 658 L 1098 656 L 1100 665 L 1066 667 L 1098 668 L 1101 666 L 1101 523 Z" fill="#010103" fill-rule="evenodd" clip-rule="evenodd"/>
<path d="M 1001 267 L 1001 433 L 1035 435 L 1002 432 L 1004 419 L 1037 420 L 1037 417 L 1002 416 Z" fill="#010103" fill-rule="evenodd" clip-rule="evenodd"/>
<path d="M 390 261 L 377 261 L 374 264 L 374 431 L 377 419 L 408 419 L 377 417 L 375 414 L 375 264 Z" fill="#010103" fill-rule="evenodd" clip-rule="evenodd"/>
<path d="M 1167 439 L 1169 447 L 1189 445 L 1189 438 L 1185 435 L 1170 435 Z M 1168 438 L 1187 437 L 1188 444 L 1170 446 Z" fill="#010103" fill-rule="evenodd" clip-rule="evenodd"/>
<path d="M 376 521 L 374 661 L 376 657 L 411 658 L 410 655 L 375 654 L 375 524 L 410 523 Z" fill="#010103" fill-rule="evenodd" clip-rule="evenodd"/>
<path d="M 1162 527 L 1161 654 L 1129 656 L 1159 657 L 1161 665 L 1130 668 L 1160 668 L 1162 665 Z" fill="#010103" fill-rule="evenodd" clip-rule="evenodd"/>
<path d="M 891 464 L 868 464 L 862 467 L 861 479 L 827 480 L 860 481 L 861 493 L 864 490 L 867 494 L 888 494 L 868 493 L 863 479 L 866 479 L 867 465 Z" fill="#010103" fill-rule="evenodd" clip-rule="evenodd"/>
<path d="M 1190 528 L 1190 660 L 1193 657 L 1229 658 L 1229 654 L 1191 653 Z" fill="#010103" fill-rule="evenodd" clip-rule="evenodd"/>
<path d="M 787 427 L 789 458 L 952 458 L 955 456 L 957 443 L 953 457 L 789 457 Z" fill="#010103" fill-rule="evenodd" clip-rule="evenodd"/>
<path d="M 368 523 L 367 654 L 352 655 L 353 671 L 367 670 L 354 670 L 352 660 L 367 659 Z" fill="#010103" fill-rule="evenodd" clip-rule="evenodd"/>
<path d="M 501 522 L 499 654 L 501 657 L 534 657 L 534 654 L 505 656 L 500 653 Z" fill="#010103" fill-rule="evenodd" clip-rule="evenodd"/>
<path d="M 730 426 L 727 457 L 583 458 L 727 458 L 730 455 Z" fill="#010103" fill-rule="evenodd" clip-rule="evenodd"/>
<path d="M 545 264 L 544 433 L 536 442 L 545 432 Z" fill="#010103" fill-rule="evenodd" clip-rule="evenodd"/>
<path d="M 1244 264 L 1245 432 Z" fill="#010103" fill-rule="evenodd" clip-rule="evenodd"/>
<path d="M 1169 269 L 1171 433 Z" fill="#010103" fill-rule="evenodd" clip-rule="evenodd"/>
<path d="M 893 465 L 893 493 L 951 493 L 900 493 L 899 465 Z" fill="#010103" fill-rule="evenodd" clip-rule="evenodd"/>
<path d="M 440 521 L 471 524 L 472 652 L 472 524 L 470 521 Z" fill="#010103" fill-rule="evenodd" clip-rule="evenodd"/>
<path d="M 304 263 L 302 415 Z" fill="#010103" fill-rule="evenodd" clip-rule="evenodd"/>
<path d="M 366 269 L 368 420 Z" fill="#010103" fill-rule="evenodd" clip-rule="evenodd"/>
<path d="M 1121 264 L 1122 414 Z" fill="#010103" fill-rule="evenodd" clip-rule="evenodd"/>
<path d="M 472 272 L 470 415 Z" fill="#010103" fill-rule="evenodd" clip-rule="evenodd"/>
<path d="M 1119 524 L 1120 664 Z" fill="#010103" fill-rule="evenodd" clip-rule="evenodd"/>
<path d="M 1238 524 L 1239 663 Z" fill="#010103" fill-rule="evenodd" clip-rule="evenodd"/>
<path d="M 298 525 L 299 662 Z" fill="#010103" fill-rule="evenodd" clip-rule="evenodd"/>
<path d="M 543 526 L 544 661 Z" fill="#010103" fill-rule="evenodd" clip-rule="evenodd"/>
<path d="M 720 428 L 717 450 L 605 451 L 718 451 Z" fill="#010103" fill-rule="evenodd" clip-rule="evenodd"/>
<path d="M 1169 523 L 1169 655 Z" fill="#010103" fill-rule="evenodd" clip-rule="evenodd"/>
<path d="M 671 466 L 671 492 L 674 480 L 709 480 L 712 491 L 712 477 L 674 478 L 672 467 L 675 464 Z" fill="#010103" fill-rule="evenodd" clip-rule="evenodd"/>
<path d="M 500 419 L 536 421 L 534 434 L 501 435 L 534 435 L 537 432 L 535 417 Z" fill="#010103" fill-rule="evenodd" clip-rule="evenodd"/>
<path d="M 1128 420 L 1130 435 L 1160 435 L 1163 432 L 1163 423 L 1160 434 L 1129 432 L 1130 419 L 1160 417 L 1130 417 Z" fill="#010103" fill-rule="evenodd" clip-rule="evenodd"/>
<path d="M 1069 415 L 1069 435 L 1099 435 L 1070 434 L 1068 421 L 1101 420 L 1101 417 Z" fill="#010103" fill-rule="evenodd" clip-rule="evenodd"/>
<path d="M 606 402 L 719 403 Z" fill="#010103" fill-rule="evenodd" clip-rule="evenodd"/>
<path d="M 1128 266 L 1129 379 Z" fill="#010103" fill-rule="evenodd" clip-rule="evenodd"/>
<path d="M 302 432 L 304 435 L 319 435 L 303 432 L 305 419 L 344 418 L 304 417 Z" fill="#010103" fill-rule="evenodd" clip-rule="evenodd"/>
<path d="M 1160 521 L 1129 521 L 1127 524 L 1127 597 L 1128 524 L 1162 524 Z" fill="#010103" fill-rule="evenodd" clip-rule="evenodd"/>
<path d="M 682 566 L 729 569 L 728 582 L 683 583 L 730 581 L 728 566 Z" fill="#010103" fill-rule="evenodd" clip-rule="evenodd"/>
<path d="M 820 516 L 826 518 L 826 542 L 823 547 L 828 545 L 828 517 L 840 519 L 839 545 L 843 545 L 842 518 Z" fill="#010103" fill-rule="evenodd" clip-rule="evenodd"/>
<path d="M 824 450 L 929 451 Z" fill="#010103" fill-rule="evenodd" clip-rule="evenodd"/>
<path d="M 835 402 L 930 403 L 934 406 L 929 402 Z" fill="#010103" fill-rule="evenodd" clip-rule="evenodd"/>
<path d="M 872 521 L 876 526 L 907 523 Z" fill="#010103" fill-rule="evenodd" clip-rule="evenodd"/>
<path d="M 470 654 L 439 656 L 469 656 L 471 665 L 440 667 L 439 658 L 437 665 L 439 668 L 469 668 L 472 666 Z" fill="#010103" fill-rule="evenodd" clip-rule="evenodd"/>
<path d="M 537 334 L 536 415 Z" fill="#010103" fill-rule="evenodd" clip-rule="evenodd"/>
</svg>