<svg width="1200" height="600" viewBox="0 0 1200 600" fill="none" xmlns="http://www.w3.org/2000/svg" role="img" aria-labelledby="title desc">
  <title id="title">VASEY/SPACE ISS Tracker Hero</title>
  <desc id="desc">Promotional hero art featuring the International Space Station over Earth with tracking arcs.</desc>
  <defs>
    <linearGradient id="space" x1="0" y1="0" x2="1" y2="1">
      <stop offset="0%" stop-color="#030713"/>
      <stop offset="50%" stop-color="#081B3A"/>
      <stop offset="100%" stop-color="#0C2C5E"/>
    </linearGradient>
    <linearGradient id="earth" x1="0" y1="0" x2="1" y2="1">
      <stop offset="0%" stop-color="#0E5BCF"/>
      <stop offset="100%" stop-color="#14C5FF"/>
    </linearGradient>
    <linearGradient id="glow" x1="0" y1="0" x2="0" y2="1">
      <stop offset="0%" stop-color="#7AD7FF" stop-opacity="0.9"/>
      <stop offset="100%" stop-color="#7AD7FF" stop-opacity="0"/>
    </linearGradient>
  </defs>
  <rect width="1200" height="600" fill="url(#space)"/>
  <g fill="#FFFFFF" opacity="0.7">
    <circle cx="120" cy="88" r="2"/>
    <circle cx="220" cy="160" r="1.5"/>
    <circle cx="360" cy="120" r="2.5"/>
    <circle cx="520" cy="90" r="1"/>
    <circle cx="700" cy="140" r="2"/>
    <circle cx="880" cy="110" r="1.5"/>
    <circle cx="1020" cy="180" r="2"/>
    <circle cx="1100" cy="80" r="1"/>
    <circle cx="180" cy="260" r="1"/>
    <circle cx="420" cy="240" r="1.5"/>
    <circle cx="760" cy="240" r="1"/>
    <circle cx="980" cy="260" r="1.5"/>
  </g>
  <circle cx="600" cy="720" r="360" fill="url(#earth)"/>
  <circle cx="600" cy="720" r="360" fill="#0A1E3D" opacity="0.15"/>
  <path d="M120 360C320 260 520 240 760 260C980 280 1080 360 1120 420" stroke="#7AD7FF" stroke-width="3" stroke-linecap="round" opacity="0.8"/>
  <path d="M160 420C360 340 560 320 800 340C980 355 1060 400 1100 460" stroke="#F9B233" stroke-width="2" stroke-linecap="round" opacity="0.7"/>
  <rect x="520" y="260" width="160" height="36" rx="6" fill="#E6EEF7"/>
  <rect x="458" y="270" width="56" height="16" rx="4" fill="#A8B9D3"/>
  <rect x="686" y="270" width="56" height="16" rx="4" fill="#A8B9D3"/>
  <rect x="598" y="236" width="4" height="24" fill="#F9B233"/>
  <rect x="590" y="232" width="20" height="6" rx="3" fill="#F9B233"/>
  <rect x="560" y="298" width="80" height="10" rx="5" fill="#7AD7FF" opacity="0.8"/>
  <ellipse cx="600" cy="300" rx="180" ry="70" fill="url(#glow)" opacity="0.5"/>
  <text x="120" y="120" fill="#E6EEF7" font-family="'Segoe UI', 'Inter', sans-serif" font-size="36" font-weight="600">ISS Tracker</text>
  <text x="120" y="168" fill="#B4C8E8" font-family="'Segoe UI', 'Inter', sans-serif" font-size="18">Real-time telemetry • Pass predictions • Dual 2D/3D views</text>
</svg>
